Coordinates
version=1
nRows=9
nColumns=36
inDegrees=yes

Units are S.I. units (second, meters, Newtons, ...)
If the header above contains a line with 'inDegrees', this indicates whether rotational values are in degrees (yes) or radians (no).

endheader
time	pelvis_tilt	pelvis_list	pelvis_rotation	pelvis_tx	pelvis_ty	pelvis_tz	hip_flexion_r	hip_adduction_r	hip_rotation_r	knee_angle_r	knee_angle_r_beta	ankle_angle_r	subtalar_angle_r	mtp_angle_r	hip_flexion_l	hip_adduction_l	hip_rotation_l	knee_angle_l	knee_angle_l_beta	ankle_angle_l	subtalar_angle_l	mtp_angle_l	lumbar_extension	lumbar_bending	lumbar_rotation	arm_flex_r	arm_add_r	arm_rot_r	elbow_flex_r	pro_sup_r	arm_flex_l	arm_add_l	arm_rot_l	elbow_flex_l	pro_sup_l
      0.75000000	      1.16135829	      3.26153922	     -2.08647231	      0.68964397	      0.87283227	     -0.22617888	    -15.64277820	     -5.62850057	     -4.79285375	     34.62083306	      0.60424753	      1.19582018	      2.03305809	     -7.23266191	     22.19568440	     -0.07243290	     -5.87136123	     15.19569272	      0.26521487	     -1.03386034	      1.16535414	     -7.23266191	    -11.99458270	    -21.11135105	      9.26881883	      8.91405136	     -7.49209502	     17.67051448	     26.67732348	     97.25692048	      7.62807956	     -8.03080097	     -7.21537413	     25.52523861	     87.29442690
      0.76000000	      1.19112934	      4.03621357	     -1.77575413	      0.70138348	      0.87414117	     -0.22881715	    -14.37822072	     -6.76845386	     -5.16763059	     37.86745359	      0.66091174	     -1.20121316	      0.75615613	     -7.23718006	     21.97808741	      0.84891268	     -6.22728009	     16.43078646	      0.28677132	     -0.54434175	      1.39606332	     -7.23718006	    -12.33816826	    -22.13154774	      8.30232760	      8.69271813	     -6.99222796	     17.82462111	     26.09685264	     97.16136820	      8.03205274	     -8.37558107	     -7.10659955	     24.77693112	     87.08862691
      0.77000000	      1.24007687	      4.76473707	     -1.48367361	      0.71276849	      0.87587553	     -0.23140759	    -12.96449940	     -7.85167593	     -5.38211768	     41.22420860	      0.71949817	     -3.47130976	     -0.71718774	     -7.24190968	     21.63544545	      1.70170155	     -6.64118036	     17.47158683	      0.30493672	      0.12381405	      1.92179962	     -7.24190968	    -12.76887291	    -23.02880301	      7.28831756	      8.49312505	     -6.52812467	     17.97326985	     25.54911292	     97.06430499	      8.44187399	     -8.68734093	     -6.98349829	     24.03696614	     86.88413828
      0.78000000	      1.37290203	      5.44911601	     -1.20665257	      0.72383700	      0.87793957	     -0.23402511	    -11.52176222	     -8.90128678	     -5.51963427	     44.64013533	      0.77911734	     -5.30320216	     -2.12931520	     -7.24554422	     21.05687273	      2.53902665	     -7.06939953	     18.19344546	      0.31753553	      0.80666276	      2.44532784	     -7.24554422	    -13.24182166	    -23.77714348	      6.21810002	      8.36397921	     -6.10711450	     18.07410161	     25.18581186	     96.99201499	      8.84585884	     -8.99747738	     -6.92720177	     23.36159715	     86.72088366
      0.79000000	      1.77384819	      5.73348591	     -1.03869499	      0.73434225	      0.88065152	     -0.23645870	    -10.29481302	     -9.39686809	     -5.19428071	     47.80466621	      0.83434882	     -6.23699030	     -2.99824556	     -7.24709629	     20.07545628	      2.98521725	     -7.08936141	     18.67973053	      0.32602280	      1.13574564	      2.80028481	     -7.24709629	    -14.18121452	    -24.04000142	      5.23183424	      8.25923103	     -5.88176132	     18.10715109	     25.01414448	     96.95681283	      9.26172189	     -9.12819574	     -6.90801256	     22.97301991	     86.64509151
      0.80000000	      1.50527792	      6.14099638	     -0.97126747	      0.74507326	      0.88245072	     -0.23870878	     -8.12210346	    -10.06096176	     -4.89640320	     51.13833228	      0.89253227	     -7.84552862	     -6.27593327	     -7.25498454	     19.74058816	      3.45489629	     -7.72858501	     19.01063773	      0.33179822	      1.95208403	      3.93751394	     -7.25498454	    -13.95891747	    -24.42806196	      4.55458795	      7.99238773	     -5.56887972	     18.47972366	     24.50226193	     96.85158831	      9.62784400	     -9.34328185	     -6.71645109	     22.07763963	     86.40322214
      0.81000000	      1.92024462	      6.27778722	     -0.98626445	      0.75545459	      0.88522852	     -0.24106929	     -6.77877801	    -10.43547816	     -4.50130600	     54.03571395	      0.94310112	     -7.75278855	     -7.39386480	     -7.25704612	     18.46531336	      3.81174493	     -7.81905019	     18.92165207	      0.33024513	      2.41293734	      4.13625124	     -7.25704612	    -14.67245533	    -24.38799944	      3.60483684	      7.90239581	     -5.46632811	     18.57779274	     24.59936922	     96.83497724	      9.85553666	     -9.46851768	     -6.66631337	     21.74554587	     86.33715865
      0.82000000	      2.07653305	      6.32057166	     -1.12623350	      0.76582092	      0.88758537	     -0.24325266	     -5.03137413	    -10.67801515	     -3.98063203	     56.84928848	      0.99220726	     -7.16159205	     -9.09283066	     -7.25978908	     17.35519347	      4.07130746	     -7.91811353	     18.59688162	      0.32457681	      2.91398628	      4.31218517	     -7.25978908	    -14.89874419	    -24.25401466	      2.96257631	      7.67264125	     -5.45155611	     18.79343787	     24.74365239	     96.83413279	     10.01449973	     -9.54619924	     -6.58915240	     21.40584617	     86.27271940
      0.83000000	      2.22547607	      6.15338486	     -1.36763580	      0.77601439	      0.88992986	     -0.24528812	     -3.24497135	    -10.60362441	     -3.26392315	     59.36055172	      1.03603707	     -6.35744302	    -10.68399928	     -7.26266119	     16.20750627	      4.10888590	     -8.00842616	     18.18261627	      0.31734652	      3.38425993	      4.35566144	     -7.26266119	    -15.06934237	    -23.85244562	      2.47899640	      7.43743002	     -5.57317842	     19.05636066	     24.98203663	     96.85137094	     10.14234255	     -9.54718903	     -6.43398590	     21.18057815	     86.24235860
